<svg width="25" height="25" viewBox="0 0 25 25" fill="none" xmlns="http://www.w3.org/2000/svg">
<path d="M12.5 0C5.60553 0 0 5.60553 0 12.5C0 19.3945 5.60553 25 12.5 25C19.3945 25 25 19.3945 25 12.5C25 5.60553 19.3945 0 12.5 0ZM15.6082 12.9364H13.5741C13.5741 16.1856 13.5741 20.1866 13.5741 20.1866H10.5599C10.5599 20.1866 10.5599 16.2258 10.5599 12.9364H9.12997V10.3786H10.5599V8.72045C10.5599 7.53222 11.1238 5.67937 13.601 5.67937L15.8365 5.68609V8.17669C15.8365 8.17669 14.4804 8.17669 14.2186 8.17669C13.9568 8.17669 13.5808 8.31096 13.5808 8.87486V10.3786H15.8767L15.6082 12.9364Z" fill="#F2ECDC"/>
</svg>
