<svg width="25" height="25" viewBox="0 0 25 25" fill="none" xmlns="http://www.w3.org/2000/svg">
<path d="M12.4997 0C5.59663 0 0 5.59663 0 12.4997C0 19.4027 5.59663 25 12.4997 25C19.4027 25 25 19.4034 25 12.4997C25 5.59532 19.4034 0 12.4997 0ZM19.9251 9.0983C19.0861 13.8205 14.4032 17.819 12.9952 18.7315C11.5859 19.6439 10.3018 18.3657 9.83442 17.3969C9.30216 16.297 7.7034 10.3156 7.28454 9.82066C6.86567 9.3251 5.60974 10.3162 5.60974 10.3162L5.00013 9.51782C5.00013 9.51782 7.55198 6.47238 9.49225 6.08957C11.5499 5.68512 11.5472 9.25037 12.0421 11.2287C12.522 13.1427 12.8418 14.2361 13.2607 14.2361C13.6796 14.2361 14.4812 13.1709 15.3544 11.5348C16.2327 9.89735 15.317 8.45001 13.6029 9.47849C14.2905 5.36721 20.7629 4.37806 19.9251 9.0983Z" fill="#F2ECDC"/>
</svg>
