<svg width="26" height="25" viewBox="0 0 26 25" fill="none" xmlns="http://www.w3.org/2000/svg">
<path d="M12.6786 15.0055C14.059 15.0055 15.184 13.8805 15.184 12.5055C15.184 11.962 15.0047 11.4566 14.7112 11.0435C14.2547 10.4131 13.5156 10 12.6786 10C11.8417 10 11.1025 10.4131 10.6514 11.0435C10.3525 11.4566 10.1786 11.9566 10.1786 12.5C10.1732 13.8805 11.2982 15.0055 12.6786 15.0055Z" fill="#F2ECDC"/>
<path d="M18.1406 9.44042V7.03281H17.8309L15.733 7.03824L15.7385 9.44585L18.1406 9.44042Z" fill="#F2ECDC"/>
<path d="M12.6786 0C5.78185 0 0.178589 5.6087 0.178589 12.5C0.178589 19.3913 5.78728 25 12.6786 25C19.5699 25 25.1786 19.3913 25.1786 12.5C25.1786 5.6087 19.5699 0 12.6786 0ZM19.7873 11.0435V16.8641C19.7873 18.3804 18.5536 19.6141 17.0427 19.6141H8.31446C6.80359 19.6141 5.56989 18.3804 5.56989 16.8641V8.1413C5.56989 6.625 6.80359 5.3913 8.31446 5.3913H17.0373C18.5482 5.3913 19.7818 6.625 19.7818 8.1413V11.0435H19.7873Z" fill="#F2ECDC"/>
<path d="M16.5645 12.5001C16.5645 14.6414 14.8199 16.3859 12.6786 16.3859C10.5319 16.3859 8.7873 14.6414 8.7873 12.5001C8.7873 11.9838 8.89056 11.4892 9.07534 11.0381H6.95578V16.8588C6.95578 17.6088 7.56448 18.2229 8.31448 18.2229H17.0373C17.7873 18.2229 18.4014 17.6142 18.4014 16.8588V11.0436H16.2764C16.4612 11.4946 16.5645 11.9838 16.5645 12.5001Z" fill="#F2ECDC"/>
</svg>
